HIERARCHY
ROOT Hips
{
	OFFSET 0.000000 0.000000 0.000000
	CHANNELS 6 Xposition Yposition Zposition Zrotation Yrotation Xrotation 
	JOINT LHipJoint
	{
		OFFSET 0.000000 0.000000 0.000000
		CHANNELS 3 Zrotation Yrotation Xrotation
		JOINT LeftUpLeg
		{
			OFFSET 1.363060 -1.794630 0.839290
			CHANNELS 3 Zrotation Yrotation Xrotation
			JOINT LeftLeg
			{
				OFFSET 2.448110 -6.726130 0.000000
				CHANNELS 3 Zrotation Yrotation Xrotation
				JOINT LeftFoot
				{
					OFFSET 2.562200 -7.039590 0.000000
					CHANNELS 3 Zrotation Yrotation Xrotation
					JOINT LeftToeBase
					{
						OFFSET 0.157640 -0.433110 2.322550
						CHANNELS 3 Zrotation Yrotation Xrotation
						End Site
						{
							OFFSET 0.000000 0.000000 0.000000
						}
					}
				}
			}
		}
	}
	JOINT RHipJoint
	{
		OFFSET 0.000000 0.000000 0.000000
		CHANNELS 3 Zrotation Yrotation Xrotation
		JOINT RightUpLeg
		{
			OFFSET -1.305520 -1.794630 0.839290
			CHANNELS 3 Zrotation Yrotation Xrotation
			JOINT RightLeg
			{
				OFFSET -2.542530 -6.985550 0.000000
				CHANNELS 3 Zrotation Yrotation Xrotation
				JOINT RightFoot
				{
					OFFSET -2.568260 -7.056230 0.000000
					CHANNELS 3 Zrotation Yrotation Xrotation
					JOINT RightToeBase
					{
						OFFSET -0.164730 -0.452590 2.363150
						CHANNELS 3 Zrotation Yrotation Xrotation
						End Site
						{
							OFFSET 0.000000 0.000000 0.000000
						}
					}
				}
			}
		}
	}
	JOINT LowerBack
	{
		OFFSET 0.000000 0.000000 0.000000
		CHANNELS 3 Zrotation Yrotation Xrotation
		JOINT Spine
		{
			OFFSET 0.028270 2.035590 -0.193380
			CHANNELS 3 Zrotation Yrotation Xrotation
			JOINT Spine1
			{
				OFFSET 0.056720 2.048850 -0.042750
				CHANNELS 3 Zrotation Yrotation Xrotation
				JOINT Neck
				{
					OFFSET 0.000000 0.000000 0.000000
					CHANNELS 3 Zrotation Yrotation Xrotation
					JOINT Neck1
					{
						OFFSET -0.054170 1.746240 0.172020
						CHANNELS 3 Zrotation Yrotation Xrotation
						JOINT Head
						{
							OFFSET 0.104070 1.761360 -0.123970
							CHANNELS 3 Zrotation Yrotation Xrotation
							End Site
							{
								OFFSET 0.000000 0.000000 0.000000
							}
						}
					}
				}
				JOINT LeftShoulder
				{
					OFFSET 0.000000 0.000000 0.000000
					CHANNELS 3 Zrotation Yrotation Xrotation
					JOINT LeftArm
					{
						OFFSET 3.362410 1.200890 -0.311210
						CHANNELS 3 Zrotation Yrotation Xrotation
						JOINT LeftForeArm
						{
							OFFSET 4.983000 -0.000000 -0.000000
							CHANNELS 3 Zrotation Yrotation Xrotation
							JOINT LeftHand
							{
								OFFSET 3.483560 -0.000000 -0.000000
								CHANNELS 3 Zrotation Yrotation Xrotation
								JOINT LeftFingerBase
								{
									OFFSET 0.000000 0.000000 0.000000
									CHANNELS 3 Zrotation Yrotation Xrotation
									JOINT LeftHandIndex1
									{
										OFFSET 0.715260 -0.000000 -0.000000
										CHANNELS 3 Zrotation Yrotation Xrotation
										End Site
										{
											OFFSET 0.000000 0.000000 0.000000
										}
									}
								}
								JOINT LThumb
								{
									OFFSET 0.000000 0.000000 0.000000
									CHANNELS 3 Zrotation Yrotation Xrotation
									End Site
									{
										OFFSET 0.000000 0.000000 0.000000
									}
								}
							}
						}
					}
				}
				JOINT RightShoulder
				{
					OFFSET 0.000000 0.000000 0.000000
					CHANNELS 3 Zrotation Yrotation Xrotation
					JOINT RightArm
					{
						OFFSET -3.136600 1.374050 -0.404650
						CHANNELS 3 Zrotation Yrotation Xrotation
						JOINT RightForeArm
						{
							OFFSET -5.241900 -0.000000 -0.000000
							CHANNELS 3 Zrotation Yrotation Xrotation
							JOINT RightHand
							{
								OFFSET -3.444170 -0.000000 -0.000000
								CHANNELS 3 Zrotation Yrotation Xrotation
								JOINT RightFingerBase
								{
									OFFSET 0.000000 0.000000 0.000000
									CHANNELS 3 Zrotation Yrotation Xrotation
									JOINT RightHandIndex1
									{
										OFFSET -0.622530 -0.000000 -0.000000
										CHANNELS 3 Zrotation Yrotation Xrotation
										End Site
										{
											OFFSET 0.000000 0.000000 0.000000
										}
									}
								}
								JOINT RThumb
								{
									OFFSET 0.000000 0.000000 0.000000
									CHANNELS 3 Zrotation Yrotation Xrotation
									End Site
									{
										OFFSET 0.000000 0.000000 0.000000
									}
								}
							}
						}
					}
				}
			}
		}
	}
}
MOTION
Frames: 12
Frame Time: 0.008333
1.496437 15.811779 1.506738 -19.154872 -78.966299 58.984769 -9.603808 -3.062924 0.681298 -8.297219 -9.405796 -71.615112 -0.899912 2.915313 53.162635 2.887943 8.571821 -21.881153 -2.042100 -0.000000 -28.638699 7.084298 2.256923 -1.525191 11.893170 2.289024 -81.199150 -1.928390 -6.345060 75.440346 -4.197233 -21.800056 11.960348 -8.481100 -0.000000 -65.926200 0.684431 -2.970824 5.277479 -0.522486 -2.925435 -2.177203 -5.766876 -2.842500 -1.947059 12.060045 -14.973558 -9.105664 -1.909747 -0.087283 -0.940423 0.000000 0.000000 0.000000 11.707013 1.199309 0.973495 -69.450662 2.076568 8.789730 -179.400833 -71.755094 179.945273 6.654678 1.061512 0.036169 -0.132598 0.486638 0.000000 0.000000 0.000000 0.000000 0.000000 0.000000 0.000000 6.571723 -9.635700 2.070032 67.156320 2.301400 24.089535 179.137678 75.415388 179.973567 -4.360902 2.781767 -0.126810 0.144460 -0.487462 0.000000 0.000000 0.000000 0.000000 0.000000 0.000000 0.000000 
1.509236 15.850018 1.530881 -20.232495 -78.586646 59.449792 -9.742277 -3.152159 0.565333 -7.999907 -8.982284 -70.703741 -0.905620 2.881522 52.765461 2.820174 8.401391 -21.742550 -1.992500 -0.000000 -28.811300 6.956578 2.370536 -1.670473 12.081653 2.307517 -81.808946 -2.102979 -6.395605 77.046138 -4.069956 -21.660451 15.337328 -9.389100 -0.000000 -65.902099 1.052903 -3.057475 5.574190 -0.434948 -3.018037 -2.111860 -5.767004 -2.932532 -1.932247 12.010550 -15.033162 -8.969736 -1.894093 -0.088460 -0.894640 0.000000 0.000000 0.000000 11.661878 1.064572 0.919772 -69.310852 2.129228 8.443786 -179.420265 -71.760153 179.942201 7.018687 1.113775 0.041479 -0.140432 0.484583 0.000000 0.000000 0.000000 0.000000 0.000000 0.000000 0.000000 6.397067 -9.788498 2.036041 67.116401 2.175769 24.530818 179.136668 75.336818 179.975631 -4.092927 2.726483 -0.116851 0.137407 -0.482504 0.000000 0.000000 0.000000 0.000000 0.000000 0.000000 0.000000 
1.521705 15.891816 1.555001 -21.329603 -78.210662 59.945992 -9.888563 -3.241250 0.458158 -7.665936 -8.557828 -69.775180 -0.910537 2.841673 52.291947 2.753862 8.243543 -21.562678 -1.937100 -0.000000 -29.000301 6.823691 2.471085 -1.809731 12.294773 2.347309 -82.439862 -2.258087 -6.449046 78.607964 -3.912785 -21.176097 18.457377 -9.998700 -0.000000 -65.913801 1.439153 -3.146813 5.857036 -0.343450 -3.113842 -2.049721 -5.767508 -3.025894 -1.914172 11.957942 -15.089824 -8.821079 -1.877222 -0.089780 -0.844835 0.000000 0.000000 0.000000 11.610819 0.928743 0.864497 -69.184117 2.221039 8.122646 -179.441100 -71.778962 179.939178 7.383775 1.162881 0.046889 -0.148088 0.482269 0.000000 0.000000 0.000000 0.000000 0.000000 0.000000 0.000000 6.205348 -9.943812 1.993560 67.084345 2.072196 24.952669 179.135826 75.233284 179.977436 -3.856675 2.685520 -0.108491 0.131020 -0.478035 -0.000000 0.000000 0.000000 0.000000 0.000000 0.000000 0.000000 
1.533199 15.936776 1.578399 -22.421951 -77.851453 60.459259 -10.036385 -3.326888 0.359992 -7.314182 -8.135116 -68.837254 -0.916134 2.795662 51.742548 2.689958 8.099108 -21.343599 -1.876900 0.000000 -29.187500 6.693141 2.559156 -1.936201 12.516596 2.414688 -83.109071 -2.402727 -6.508843 80.129737 -3.730684 -20.344745 21.239084 -10.261200 0.000000 -66.134000 1.823749 -3.235619 6.116623 -0.252916 -3.209204 -1.992420 -5.770367 -3.118879 -1.891293 11.907914 -15.143449 -8.660635 -1.860260 -0.091319 -0.791217 0.000000 0.000000 0.000000 11.563187 0.796777 0.806854 -69.067333 2.343366 7.839924 -179.462344 -71.814170 179.936354 7.734109 1.205655 0.052099 -0.155296 0.479724 0.000000 0.000000 0.000000 0.000000 0.000000 0.000000 0.000000 6.008510 -10.100130 1.942056 67.062634 1.982154 25.350487 179.134915 75.101654 179.978973 -3.654397 2.663692 -0.101928 0.125345 -0.474238 -0.000000 0.000000 0.000000 0.000000 0.000000 0.000000 0.000000 
1.543738 15.984646 1.601010 -23.524659 -77.512993 61.005316 -10.184295 -3.409539 0.270312 -6.947560 -7.711788 -67.894195 -0.922298 2.743807 51.120295 2.628689 7.968177 -21.087127 -1.812600 -0.000000 -29.383800 6.566630 2.633967 -2.049333 12.749128 2.512164 -83.822578 -2.544215 -6.577163 81.610470 -3.529036 -19.188462 23.624413 -10.164100 -0.000001 -66.543300 2.204560 -3.319495 6.351936 -0.164267 -3.299763 -1.940004 -5.776170 -3.207041 -1.862949 11.858752 -15.197085 -8.490028 -1.843599 -0.093076 -0.734362 0.000000 0.000000 0.000000 11.517789 0.672472 0.746656 -68.959117 2.481391 7.605758 -179.482945 -71.867705 179.933856 8.054949 1.240155 0.056908 -0.161795 0.477005 0.000000 0.000000 0.000000 0.000000 0.000000 0.000000 0.000000 5.807127 -10.258462 1.882069 67.052477 1.903639 25.718837 179.133901 74.941246 179.980249 -3.486110 2.663986 -0.097060 0.120369 -0.471225 -0.000000 0.000000 0.000000 0.000000 0.000000 0.000000 0.000000 
1.553158 16.035137 1.622786 -24.643153 -77.202453 61.593360 -10.329408 -3.488630 0.187635 -6.575751 -7.285409 -66.949561 -0.929649 2.686287 50.427493 2.570456 7.850918 -20.796021 -1.745200 0.000000 -29.583000 6.446167 2.696278 -2.147445 12.988007 2.640714 -84.589794 -2.688313 -6.655430 83.045903 -3.314101 -17.755488 25.571236 -9.731500 -0.000000 -67.077000 2.576035 -3.395058 6.561828 -0.079082 -3.382015 -1.892623 -5.785374 -3.286817 -1.829081 11.808967 -15.250867 -8.311222 -1.827679 -0.095043 -0.674992 0.000000 0.000000 0.000000 11.473019 0.560112 0.684531 -68.856863 2.624930 7.426754 -179.501836 -71.940432 179.931798 8.333010 1.264236 0.060816 -0.167364 0.474169 0.000000 0.000000 0.000000 0.000000 0.000000 0.000000 0.000000 5.602454 -10.416623 1.814189 67.055905 1.832755 26.053026 179.132880 74.751867 179.981271 -3.351158 2.687622 -0.093989 0.116045 -0.469075 0.000000 0.000000 0.000000 0.000000 0.000000 0.000000 0.000000 
1.561307 16.087867 1.643615 -25.783866 -76.928403 62.235026 -10.467971 -3.563393 0.109480 -6.211789 -6.852097 -66.007298 -0.939227 2.623265 49.666871 2.515655 7.747142 -20.473819 -1.675600 -0.000000 -29.772800 6.333091 2.748026 -2.227379 13.223570 2.803218 -85.422031 -2.837787 -6.743452 84.425009 -3.094015 -16.130183 27.072123 -9.030701 -0.000000 -67.746500 2.931428 -3.459575 6.744937 0.000973 -3.453021 -1.850518 -5.797974 -3.355218 -1.790000 11.756489 -15.303851 -8.126686 -1.812977 -0.097206 -0.613986 0.000000 0.000000 0.000000 11.427510 0.464037 0.621292 -68.758760 2.766598 7.305298 -179.517993 -72.027702 179.930265 8.557159 1.276272 0.063519 -0.171835 0.471293 0.000000 0.000000 0.000000 0.000000 0.000000 0.000000 0.000000 5.395427 -10.571170 1.739340 67.074062 1.765661 26.350437 179.131983 74.534582 179.982051 -3.248001 2.733093 -0.092314 0.112318 -0.467795 0.000000 0.000000 0.000000 0.000000 0.000000 0.000000 0.000000 
1.568554 16.142595 1.664139 -26.969305 -76.688652 62.950599 -10.601745 -3.636039 0.034540 -5.851557 -6.409558 -65.068165 -0.949890 2.555152 48.842897 2.464320 7.658378 -20.120506 -1.604000 0.000000 -29.995400 6.223435 2.789239 -2.292727 13.463446 2.993469 -86.319713 -2.992708 -6.840772 85.734415 -2.874201 -14.398425 28.130407 -8.140700 0.000001 -68.329500 3.280664 -3.510889 6.906999 0.078159 -3.510815 -1.812839 -5.812478 -3.410300 -1.747405 11.692594 -15.355534 -7.938646 -1.799372 -0.099502 -0.552273 0.000000 0.000000 0.000000 11.370252 0.385404 0.558757 -68.665511 2.898453 7.239458 -179.530613 -72.124847 179.929296 8.720798 1.276248 0.064922 -0.175105 0.468460 0.000000 0.000000 0.000000 0.000000 0.000000 0.000000 0.000000 5.176697 -10.719263 1.659283 67.106600 1.703270 26.608124 179.131694 74.293506 179.982604 -3.174615 2.797958 -0.092037 0.109109 -0.467324 -0.000000 0.000000 0.000000 0.000000 0.000000 0.000000 0.000000 
1.574826 16.198851 1.683966 -28.200884 -76.496218 63.747505 -10.724162 -3.704816 -0.041586 -5.517574 -5.952920 -64.138378 -0.963803 2.482152 47.959371 2.417063 7.584236 -19.742151 -1.531700 0.000001 -30.195900 6.118965 2.824049 -2.336659 13.684508 3.220113 -87.298804 -3.150141 -6.944677 86.953539 -2.665247 -12.687253 28.805068 -7.177399 0.000000 -68.971300 3.609906 -3.548682 7.045258 0.149458 -3.554559 -1.780212 -5.828968 -3.451189 -1.702241 11.618234 -15.401277 -7.750401 -1.787324 -0.101906 -0.490892 0.000000 0.000000 0.000000 11.304215 0.329163 0.498473 -68.574821 3.023165 7.224805 -179.539134 -72.224096 179.928912 8.819758 1.262821 0.064823 -0.177143 0.465732 0.000000 0.000000 0.000000 0.000000 0.000000 0.000000 0.000000 4.950322 -10.853630 1.574862 67.154188 1.642297 26.828298 179.132045 74.028208 179.982930 -3.129253 2.876977 -0.092957 0.106369 -0.467601 -0.000000 0.000000 0.000000 0.000000 0.000000 0.000000 0.000000 
1.580362 16.256262 1.703777 -29.496125 -76.345880 64.644191 -10.837661 -3.771974 -0.119861 -5.203770 -5.481950 -63.219766 -0.979521 2.404770 47.023204 2.374036 7.527180 -19.339116 -1.458900 0.000001 -30.411800 6.014725 2.852323 -2.362618 13.892641 3.476733 -88.359169 -3.305748 -7.053492 88.064785 -2.472318 -11.086562 29.150540 -6.227700 -0.000000 -69.487900 3.930401 -3.572890 7.165860 0.217637 -3.584359 -1.751871 -5.845458 -3.478082 -1.656949 11.524986 -15.438305 -7.564057 -1.776644 -0.104350 -0.430728 0.000000 0.000000 0.000000 11.218777 0.294444 0.442745 -68.488622 3.140045 7.252640 -179.543189 -72.316390 179.929075 8.855390 1.237565 0.063322 -0.177995 0.463180 0.000000 0.000000 0.000000 0.000000 0.000000 0.000000 0.000000 4.707067 -10.969786 1.488136 67.214034 1.584614 27.010753 179.133543 73.743793 179.983050 -3.109674 2.966070 -0.094875 0.104038 -0.468508 -0.000000 0.000000 0.000000 0.000000 0.000000 0.000000 0.000000 
1.585476 16.314387 1.723672 -30.863594 -76.239558 65.649517 -10.940502 -3.837937 -0.202680 -4.916613 -4.996307 -62.317076 -0.997155 2.323529 46.041658 2.335533 7.488174 -18.915057 -1.386000 0.000000 -30.630000 5.908957 2.875810 -2.369435 14.079250 3.764112 -89.507290 -3.454062 -7.164757 89.049172 -2.301846 -9.681283 29.249900 -5.371000 -0.000001 -69.881900 4.241082 -3.584733 7.271091 0.282713 -3.601249 -1.727731 -5.861031 -3.492055 -1.613547 11.410833 -15.462521 -7.382223 -1.767297 -0.106783 -0.372631 0.000000 0.000000 0.000000 11.112537 0.281883 0.393476 -68.408254 3.254953 7.313499 -179.542797 -72.392899 179.929729 8.832298 1.201625 0.060520 -0.177761 0.460848 0.000000 0.000000 0.000000 0.000000 0.000000 0.000000 0.000000 4.444770 -11.061905 1.400417 67.284329 1.531506 27.159279 179.136278 73.439538 179.982969 -3.114308 3.060024 -0.097592 0.102089 -0.469955 -0.000000 0.000000 0.000000 0.000000 0.000000 0.000000 0.000000 
1.590322 16.372683 1.743966 -32.310669 -76.172873 66.772720 -11.033596 -3.903962 -0.290824 -4.653844 -4.498144 -61.434956 -1.015730 2.239132 45.023925 2.301836 7.469364 -18.472141 -1.313400 0.000000 -30.862900 5.798640 2.894521 -2.358325 14.243372 4.079660 -90.744778 -3.589420 -7.276419 89.889903 -2.157737 -8.523103 29.188241 -4.657000 0.000000 -70.159000 4.547159 -3.585833 7.364686 0.346119 -3.606855 -1.707440 -5.874379 -3.494831 -1.574107 11.272656 -15.470532 -7.206741 -1.759092 -0.109152 -0.317260 0.000000 0.000000 0.000000 10.981558 0.289729 0.352491 -68.335518 3.373970 7.396834 -179.538180 -72.447124 179.930786 8.758526 1.157318 0.056717 -0.176602 0.458754 0.000000 0.000000 0.000000 0.000000 0.000000 0.000000 0.000000 4.159999 -11.125810 1.313249 67.360977 1.485037 27.277656 179.140454 73.118051 179.982697 -3.141466 3.155435 -0.101208 0.100508 -0.471848 0.000000 0.000000 0.000000 0.000000 0.000000 0.000000 0.000000 
